<svg xmlns="http://www.w3.org/2000/svg" viewBox="0 0 806.02 873.88"><defs><style>.cls-1{fill:#f2f2f2;}.cls-2{font-size:38px;letter-spacing:0.03em;}.cls-14,.cls-2{font-family:Roboto-Regular, Roboto;}.cls-3{letter-spacing:0.01em;}.cls-4{fill:#ff7478;}.cls-5{fill:#ffe63f;}.cls-6{fill:#00e9be;}.cls-7{fill:#ccc;}.cls-8{fill:#e6e6e6;}.cls-9{fill:#00a99d;}.cls-10,.cls-14{font-size:31px;letter-spacing:0.03em;}.cls-10,.cls-25,.cls-26,.cls-28,.cls-32{font-family:Helvetica;}.cls-11{letter-spacing:0.09em;}.cls-12{letter-spacing:0.03em;}.cls-13{text-decoration:underline;}.cls-14{fill:gray;}.cls-15,.cls-33,.cls-34{fill:none;}.cls-15,.cls-18,.cls-33,.cls-34{stroke:#000;stroke-miterlimit:10;}.cls-15,.cls-34{stroke-linecap:square;}.cls-15{stroke-width:2px;}.cls-16{fill:#fff74a;}.cls-17{font-size:55px;letter-spacing:0.03em;}.cls-17,.cls-19{font-family:Helvetica-Oblique, Helvetica;font-style:oblique;}.cls-18,.cls-33,.cls-34{stroke-width:3px;}.cls-19{font-size:26px;}.cls-20{fill:#9fbfff;}.cls-21{fill:#74ff97;}.cls-22{fill:#fff67f;}.cls-23{fill:#ff94be;}.cls-24{font-size:21.53px;font-family:Helvetica-Bold, Helvetica;font-weight:700;}.cls-25,.cls-26,.cls-28{font-weight:400;}.cls-25,.cls-31{letter-spacing:0em;}.cls-27{letter-spacing:0em;}.cls-28{letter-spacing:0.06em;}.cls-29{letter-spacing:-0.01em;}.cls-30{letter-spacing:0.02em;}.cls-32{font-size:27.35px;}</style></defs><title>Asset 2</title><g id="Layer_2" data-name="Layer 2"><g id="Layer_1-2" data-name="Layer 1"><rect class="cls-1" width="806.02" height="466.26" rx="12"/><text class="cls-2" transform="translate(269.42 41.04) scale(0.58)">online-shop.co<tspan class="cls-3" x="263.7" y="0">m</tspan><tspan x="297.39" y="0">/checkout</tspan></text><circle class="cls-4" cx="37.09" cy="33.33" r="12.69"/><circle class="cls-5" cx="76.72" cy="32.99" r="12.69"/><circle class="cls-6" cx="118.41" cy="32.65" r="12.69"/><rect class="cls-7" x="239.16" y="73.78" width="336.27" height="127.86" rx="12"/><rect class="cls-8" x="242.17" y="226.58" width="336.27" height="24" rx="12"/><rect class="cls-8" x="241.27" y="269.54" width="336.27" height="24" rx="12"/><rect class="cls-9" x="243.85" y="315.02" width="329.9" height="52.59" rx="12"/><circle class="cls-1" cx="269.42" cy="341.77" r="12.45"/><text class="cls-10" transform="translate(295.13 347.58) scale(0.58)">Contribute<tspan class="cls-11" x="152.33" y="0"> </tspan><tspan class="cls-12" x="163.73" y="0">$0.10 to </tspan><tspan class="cls-13" x="292.75" y="0">Sunshine</tspan></text><text/><rect class="cls-7" x="243.85" y="384.37" width="325.83" height="49.16" rx="12"/><text class="cls-14" transform="translate(360.61 414.76) scale(0.58)">Checkout</text><line class="cls-15" x1="573.75" y1="341.31" x2="654.49" y2="341.31"/><rect class="cls-8" y="497.62" width="447.41" height="376.26" rx="12"/><line class="cls-15" x1="654.49" y1="342.17" x2="654.49" y2="508"/><rect class="cls-16" x="502.96" y="493.84" width="303.07" height="121.9" rx="12"/><rect class="cls-7" x="242.17" y="226.58" width="336.27" height="24" rx="12"/><text class="cls-17" transform="translate(584.27 548.66) scale(0.58)">Sunshine<tspan x="55.29" y="56.6">Fund</tspan></text><polygon class="cls-18" points="654.49 495.91 662.74 481.63 646.25 481.63 654.49 495.91"/><text class="cls-19" transform="translate(107.84 538.93)">Purchase Requests</text><rect class="cls-20" x="39.49" y="566.17" width="371.27" height="53.02" rx="12"/><rect class="cls-21" x="39.49" y="639.82" width="371.27" height="53.02" rx="12"/><rect class="cls-22" x="39.49" y="713.47" width="371.27" height="53.02" rx="12"/><rect class="cls-23" x="39.49" y="788.65" width="371.27" height="53.02" rx="12"/><text class="cls-24" transform="translate(56.24 599.72)">Sally <tspan class="cls-25" x="56.25" y="0">from </tspan><tspan x="105.29" y="0">Queens </tspan><tspan class="cls-26" x="190.23" y="0">needs </tspan><tspan x="254.87" y="0">Diapers</tspan></text><text class="cls-24" transform="translate(58.24 673.33)">Joe <tspan class="cls-26" x="43.08" y="0">from </tspan><tspan class="cls-27" x="92.12" y="0">NYC </tspan><tspan class="cls-28" x="143.55" y="0">n</tspan><tspan class="cls-26" x="156.81" y="0">eeds </tspan><tspan x="209.48" y="0">Baby </tspan><tspan class="cls-29" x="268.1" y="0">W</tspan><tspan x="288.23" y="0">ipes</tspan></text><text class="cls-24" transform="translate(64.94 747.02)">Rae <tspan class="cls-26" x="45.47" y="0">from </tspan><tspan x="94.51" y="0">Chicago </tspan><tspan class="cls-26" x="185.42" y="0">needs </tspan><tspan x="250.06" y="0">Cereal</tspan></text><text class="cls-24" transform="translate(86.84 822.2)">Jod<tspan class="cls-30" x="38.27" y="0">i</tspan><tspan class="cls-31" x="44.69" y="0"> </tspan><tspan class="cls-26" x="50.67" y="0">from </tspan><tspan x="99.7" y="0">SF </tspan><tspan class="cls-26" x="133.2" y="0">needs </tspan><tspan class="cls-27" x="197.83" y="0">Aspirin</tspan></text><text class="cls-32" transform="translate(576.57 729.08)">Reputation +<tspan x="-30.01" y="32.81">need prioritization</tspan></text><line class="cls-33" x1="654.49" y1="615.74" x2="654.49" y2="698.03"/><line class="cls-34" x1="654.49" y1="776.08" x2="654.49" y2="815.16"/><polygon class="cls-18" points="441.38 815.16 455.65 823.4 455.65 806.91 441.38 815.16"/><line class="cls-34" x1="654.49" y1="815.16" x2="445.89" y2="815.16"/></g></g></svg>