<svg xmlns="http://www.w3.org/2000/svg" viewBox="0 0 70.09 70.09"><defs><style>.cls-1{fill:#ffde00;}</style></defs><title>Asset 1</title><g id="Layer_2" data-name="Layer 2"><g id="Layer_1-2" data-name="Layer 1"><circle class="cls-1" cx="35.04" cy="35.04" r="33.2"/><path d="M35,70.09A35,35,0,1,1,70.09,35,35.08,35.08,0,0,1,35,70.09Zm0-66.4A31.36,31.36,0,1,0,66.4,35,31.39,31.39,0,0,0,35,3.69Z"/><path d="M25.36,30.31a1.84,1.84,0,0,1-1.84-1.84,3.92,3.92,0,1,0-7.84,0,1.85,1.85,0,0,1-3.69,0,7.61,7.61,0,0,1,15.22,0A1.84,1.84,0,0,1,25.36,30.31Z"/><path d="M34.87,57.18c-13,0-21.48-8.18-23.21-16.25a1.85,1.85,0,0,1,3.61-.77c1.41,6.62,8.6,13.33,19.6,13.33,8.6,0,15.11-5.23,18.84-10.47a8.78,8.78,0,0,0-2.21-.43,8.94,8.94,0,0,1-1.64-.28,1.85,1.85,0,0,1,.1-3.56l7.79-1.88h.07l.09,0a1.86,1.86,0,0,1,1.19.22,1.51,1.51,0,0,1,.26.18A1.82,1.82,0,0,1,60,38.32l1.57,8.18a1.84,1.84,0,0,1-3.53,1,11.8,11.8,0,0,0-1.34-2.3C52,51.77,44.11,57.18,34.87,57.18Z"/><path d="M36.92,46.13a12.9,12.9,0,0,1-5.64-1.32A1.85,1.85,0,1,1,33.1,41.6c1.48.84,4.7,1.09,5.32.59a.34.34,0,0,0,0-.09c-.17-2.21-3.37-9-5.35-12.78a1.85,1.85,0,0,1,3.27-1.71c.56,1.07,5.47,10.52,5.76,14.2a3.65,3.65,0,0,1-1.7,3.49A6.49,6.49,0,0,1,36.92,46.13Z"/><path d="M55.88,30.31A1.84,1.84,0,0,1,54,28.47a3.92,3.92,0,0,0-7.84,0,1.85,1.85,0,0,1-3.69,0,7.61,7.61,0,0,1,15.22,0A1.84,1.84,0,0,1,55.88,30.31Z"/></g></g></svg>