<svg xmlns="http://www.w3.org/2000/svg" viewBox="0 0 806.02 377.29"><defs><style>.cls-1{fill:#f2f2f2;}.cls-2{font-size:28px;}.cls-18,.cls-2,.cls-7{font-family:Helvetica-Bold, Helvetica;font-weight:700;}.cls-3{letter-spacing:-0.07em;}.cls-4{letter-spacing:0.02em;}.cls-5{letter-spacing:-0.02em;}.cls-6{font-size:38px;font-family:Roboto-Regular, Roboto;letter-spacing:0.03em;}.cls-7{font-size:33px;}.cls-8{fill:#ff7478;}.cls-9{fill:#ffe63f;}.cls-10{fill:#00e9be;}.cls-11{fill:#e6e6e6;}.cls-12,.cls-13{font-size:24px;}.cls-12{fill:gray;}.cls-12,.cls-13,.cls-16,.cls-21{font-family:Helvetica;}.cls-14{fill:#999;}.cls-15{fill:#22b573;}.cls-16{font-size:14.82px;}.cls-17{fill:#29abe2;}.cls-18{font-size:14px;}.cls-19{letter-spacing:-0.02em;}.cls-20{letter-spacing:-0.11em;}.cls-21{font-size:15px;}</style></defs><title>Asset 3</title><g id="Layer_2" data-name="Layer 2"><g id="Layer_1-2" data-name="Layer 1"><rect class="cls-1" width="806.02" height="377.29" rx="12"/><text class="cls-2" transform="translate(56.24 172.67)"><tspan class="cls-3">Y</tspan><tspan x="16.61" y="0">our</tspan><tspan class="cls-4" x="61.71" y="0"> </tspan><tspan x="70.05" y="0">monthly lis</tspan><tspan class="cls-5" x="217.85" y="0">t</tspan></text><text class="cls-6" transform="translate(269.42 48.08) scale(0.58)">app.sunshine.community</text><text class="cls-7" transform="translate(58.24 124.51)">Hi Sally!</text><circle class="cls-8" cx="35.04" cy="39.26" r="12.69"/><circle class="cls-9" cx="74.67" cy="38.92" r="12.69"/><circle class="cls-10" cx="116.36" cy="38.58" r="12.69"/><rect class="cls-11" x="398.49" y="91.86" width="367.25" height="42.87" rx="21.43"/><text class="cls-12" transform="translate(427.53 120.51)">Search for products....</text><text class="cls-13" transform="translate(52.43 241.27)">Diapers (25 count)</text><rect class="cls-14" x="379.3" y="230.38" width="202.81" height="4.11" rx="2.06"/><rect class="cls-15" x="379.3" y="230.38" width="142.4" height="4.11" rx="2.06"/><text class="cls-16" transform="translate(441.08 251.43)">75% funded</text><rect class="cls-17" x="606.36" y="206.24" width="162.74" height="48.28" rx="12"/><text class="cls-18" transform="translate(622.22 228.11)">Complete Purchase</text><text class="cls-13" transform="translate(52.43 318.55)">Paper<tspan class="cls-19" x="64.04" y="0"> </tspan><tspan class="cls-20" x="70.29" y="0">T</tspan><tspan x="82.29" y="0">owels (2 count)</tspan></text><rect class="cls-14" x="379.3" y="307.67" width="202.81" height="4.11" rx="2.06"/><rect class="cls-15" x="379.3" y="307.67" width="105.92" height="4.11" rx="2.06"/><text class="cls-16" transform="translate(441.08 328.71)">50% funded</text><rect class="cls-17" x="606.36" y="283.52" width="162.74" height="48.28" rx="12"/><text class="cls-18" transform="translate(622.22 305.39)">Complete Purchase</text><text class="cls-21" transform="translate(668.8 247.52)">$3.75</text><text class="cls-21" transform="translate(668.96 322.73)">$1.20</text></g></g></svg>